<svg width="100" height="100" viewBox="0 0 100 100" fill="none" xmlns="http://www.w3.org/2000/svg">
<path d="M65.2478 57.2381C55.9218 54.0397 53.5784 52.9946 60.8936 52.0288C68.8263 50.9679 74.4631 50.8412 75.9673 50.6987C66.0395 50.4612 64.2978 49.9229 65.7862 49.7012C52.66 47.9595 58.5818 46.2811 64.7887 44.0011C63.0153 44.3494 61.2419 44.7611 59.5319 45.1886C64.5036 40.6602 65.897 38.9818 74.3997 34.5008C74.3997 34.5008 64.0445 36.8601 61.4794 37.8576C56.4284 39.7893 54.6551 41.151 57.5526 40.3435C60.8302 39.4251 62.7619 39.2826 62.7619 39.2826C62.7619 39.2826 56.7609 40.2643 52.9133 44.0169L50.2849 46.4395C47.7199 45.1886 43.7456 43.5102 47.4982 46.5028C47.4982 46.5028 45.1073 45.6794 40.7847 43.9061C45.8832 45.2836 43.0489 41.721 37.0479 38.5859C40.373 39.9318 51.14 43.9219 47.2449 42.1485C40.5947 39.1084 37.0321 37.1767 29.2419 34.105C40.4047 42.7344 43.6823 44.6344 35.2429 42.9719C44.569 46.1703 46.9124 47.2153 39.5972 48.1812C31.6645 49.242 26.0276 49.3687 24.5234 49.5112C34.4512 49.7487 36.1929 50.2871 34.7045 50.5087C47.8307 52.2505 41.9089 53.9288 35.6862 56.2089C37.4596 55.8605 39.233 55.4489 40.943 55.0214C35.9712 59.5498 34.5779 61.2282 26.0751 65.7091C26.0751 65.7091 36.4304 63.3499 38.9955 62.3524C44.0464 60.4207 45.8198 59.059 42.9223 59.8665C39.6447 60.7848 37.7129 60.9273 37.7129 60.9273C37.7129 60.9273 43.7139 59.9457 47.5615 56.1931L50.1899 53.7705C52.755 55.0214 56.7293 56.6997 52.9767 53.7072C52.9767 53.7072 55.3676 54.5305 59.6902 56.3039C54.5917 54.9264 57.426 58.4889 63.427 61.624C60.1019 60.2782 49.3349 56.2881 53.23 58.0614C59.896 61.1015 63.4586 63.0332 71.233 66.105C60.0702 57.4756 56.7926 55.5755 65.232 57.2381H65.2478ZM53.8159 51.0629C54.0534 50.9046 54.1959 50.7937 54.1959 50.7937C47.324 53.1846 40.1355 55.0214 47.4982 50.3504C47.4982 50.3504 44.5056 50.8254 42.8589 50.9204C39.2488 51.1421 39.5338 50.1921 41.5289 50.1129L37.1429 49.9546C37.1429 49.9546 44.9015 48.7829 46.5482 48.482C47.704 48.2762 47.1024 48.7987 46.6432 49.147C46.4057 49.3054 46.2632 49.4162 46.2632 49.4162C53.135 47.0253 60.3235 45.1886 52.9608 49.8596C52.9608 49.8596 55.9534 49.3845 57.6001 49.2895C61.2102 49.0679 60.9252 50.0179 58.9302 50.0971L63.3161 50.2554C63.3161 50.2554 55.5576 51.4271 53.9109 51.7279C52.755 51.9338 53.3567 51.4113 53.8159 51.0629Z" fill="#39B8FF"/>
</svg>
